<svg id="Layer_1" data-name="Layer 1" xmlns="http://www.w3.org/2000/svg" viewBox="0 0 308.73 61.24"><defs><style>.cls-1{fill:#fff;}</style></defs><title>parsehub_logo3</title><g id="parsehub_logo" data-name="parsehub logo"><g id="symbol"><path class="cls-1" d="M16.3,34.29A15.92,15.92,0,1,1,32.22,50.21,15.94,15.94,0,0,1,16.3,34.29Z" transform="translate(-0.98 -3.98)"/><path class="cls-1" d="M62.22,8.88A5.05,5.05,0,0,0,57.16,4H32.22C15.31,4,1,17.38,1,34.29V65.22H8.42V34.29a23.47,23.47,0,0,1,46.94,0A23.43,23.43,0,0,1,31.93,57.56c-6.16,0-12.58-2.41-16.08-6.32v14H32.22c16.91,0,30-14,30-30.93V8.88Z" transform="translate(-0.98 -3.98)"/></g><g id="name"><path class="cls-1" d="M75.83,18.6a12.09,12.09,0,0,1,1.64-.24q0.81-.06,1.82-0.06a16.76,16.76,0,0,1,3.4.36,3.47,3.47,0,0,1,.33.86q0.15,0.57.3,1.22c0.1,0.44.18,0.86,0.24,1.28l0.15,1A12.44,12.44,0,0,1,85,21.19a8.38,8.38,0,0,1,1.88-1.64,10.51,10.51,0,0,1,2.48-1.16,9.77,9.77,0,0,1,3-.45,12.11,12.11,0,0,1,4.8,1,10.62,10.62,0,0,1,3.91,2.89,13.68,13.68,0,0,1,2.59,4.86,23.05,23.05,0,0,1,.92,6.92,20,20,0,0,1-1.13,6.95,14.25,14.25,0,0,1-3.28,5.22A14.51,14.51,0,0,1,95,49.05a20,20,0,0,1-7,1.16q-1,0-2-.09t-1.64-.21V63.64q-1.13.18-2.18,0.24t-2.06.06q-1,0-2.06-.06t-2.18-.24v-45h0ZM84.3,42.94a13,13,0,0,0,3.7.48A6.92,6.92,0,0,0,93.67,41q2-2.38,2-7.22a18.53,18.53,0,0,0-.3-3.43,7.73,7.73,0,0,0-1-2.71,5.41,5.41,0,0,0-1.82-1.79,5.95,5.95,0,0,0-5.25-.09,4.73,4.73,0,0,0-1.7,1.55,6.81,6.81,0,0,0-1,2.3,12.64,12.64,0,0,0-.3,2.8v10.5h0Z" transform="translate(-0.98 -3.98)"/><path class="cls-1" d="M124.57,29.22a4.93,4.93,0,0,0-.48-2.33,3.57,3.57,0,0,0-1.31-1.4,5.48,5.48,0,0,0-2.06-.69,18.85,18.85,0,0,0-2.71-.18,21.11,21.11,0,0,0-6.86,1.25A16,16,0,0,1,109.89,23a11.34,11.34,0,0,1-.42-3.28,31.65,31.65,0,0,1,5.25-1.31,31.34,31.34,0,0,1,4.89-.42q6.2,0,9.69,3t3.49,9.54V48.36a49.64,49.64,0,0,1-5.07,1.25,34.61,34.61,0,0,1-6.74.6,27,27,0,0,1-5.58-.54,11.93,11.93,0,0,1-4.35-1.79,8.42,8.42,0,0,1-2.8-3.22,10.73,10.73,0,0,1-1-4.83,8.83,8.83,0,0,1,1.22-4.8,9.43,9.43,0,0,1,3.16-3.1A14,14,0,0,1,116,30.26a23,23,0,0,1,4.77-.51q1.73,0,3.82.18V29.22h0Zm0,6.14q-0.72-.12-1.55-0.21a14.17,14.17,0,0,0-1.49-.09,8.81,8.81,0,0,0-4.62,1,3.66,3.66,0,0,0-1.7,3.37,3.78,3.78,0,0,0,.66,2.39,3.91,3.91,0,0,0,1.58,1.22,6.46,6.46,0,0,0,2,.48q1,0.09,1.82.09A10.87,10.87,0,0,0,123,43.5l1.55-.27V35.36h0Z" transform="translate(-0.98 -3.98)"/><path class="cls-1" d="M138.22,18.66q0.89-.18,1.7-0.27a16,16,0,0,1,1.76-.09,12.88,12.88,0,0,1,1.76.12q0.86,0.12,1.7.3a3.48,3.48,0,0,1,.33.87q0.15,0.57.27,1.19T146,22l0.15,1a15.37,15.37,0,0,1,3.22-3.31,7.62,7.62,0,0,1,4.77-1.46q0.6,0,1.37.06a5.17,5.17,0,0,1,1.13.18,11.78,11.78,0,0,1,.18,1.37q0.06,0.78.06,1.61,0,1-.09,2.21a15.94,15.94,0,0,1-.33,2.27,8.21,8.21,0,0,0-1.46-.12h-1a13.9,13.9,0,0,0-2.27.21,5.22,5.22,0,0,0-2.39,1.1,6.52,6.52,0,0,0-1.88,2.68,13.41,13.41,0,0,0-.75,5V49.56a20.12,20.12,0,0,1-2.15.24q-1.07.06-2.09,0.06t-2.06-.06q-1-.06-2.18-0.24V18.66h0Z" transform="translate(-0.98 -3.98)"/><path class="cls-1" d="M165.42,36.08a11.8,11.8,0,0,1-5.22-2.83q-1.88-1.88-1.88-5.64a8.54,8.54,0,0,1,3.25-7.1q3.25-2.56,8.86-2.56a25.38,25.38,0,0,1,4.59.42,29.3,29.3,0,0,1,4.59,1.25,16.31,16.31,0,0,1-.6,3.22,15.46,15.46,0,0,1-1.13,2.92,23.69,23.69,0,0,0-3.16-1,14.49,14.49,0,0,0-3.64-.45,6.6,6.6,0,0,0-3.16.63,2.12,2.12,0,0,0-1.13,2,2.06,2.06,0,0,0,.81,1.85,9.41,9.41,0,0,0,2.3,1l3.4,1a16.78,16.78,0,0,1,3,1.16,8.34,8.34,0,0,1,2.3,1.7,7.14,7.14,0,0,1,1.49,2.51,10.8,10.8,0,0,1,.54,3.64,9.33,9.33,0,0,1-.92,4.12A9.5,9.5,0,0,1,177,47.2a13.28,13.28,0,0,1-4.27,2.21,18.48,18.48,0,0,1-5.67.81q-1.43,0-2.62-.09a20.46,20.46,0,0,1-2.3-.3q-1.1-.21-2.18-0.51t-2.33-.78a17.15,17.15,0,0,1,.57-3.25,20.46,20.46,0,0,1,1.16-3.19,24.64,24.64,0,0,0,3.73,1.16,17,17,0,0,0,3.67.39,12.21,12.21,0,0,0,1.82-.15,6.64,6.64,0,0,0,1.82-.54,4.32,4.32,0,0,0,1.4-1,2.78,2.78,0,0,0-.3-3.7,8.43,8.43,0,0,0-2.42-1.1Z" transform="translate(-0.98 -3.98)"/><path class="cls-1" d="M191.55,36.67a6.49,6.49,0,0,0,2.51,5.19,10.08,10.08,0,0,0,6,1.61,22.93,22.93,0,0,0,4.15-.39,23.43,23.43,0,0,0,4-1.1,14,14,0,0,1,1.13,2.86,14.73,14.73,0,0,1,.54,3.58,29.07,29.07,0,0,1-10.5,1.79A20.38,20.38,0,0,1,192,49a13.07,13.07,0,0,1-5-3.31,13.28,13.28,0,0,1-2.86-5,21,21,0,0,1-.92-6.38,20.83,20.83,0,0,1,1-6.38A14.9,14.9,0,0,1,187,22.72a13.41,13.41,0,0,1,4.65-3.49,15.27,15.27,0,0,1,6.47-1.28,13.77,13.77,0,0,1,5.73,1.13,12.6,12.6,0,0,1,4.26,3.1,13.08,13.08,0,0,1,2.65,4.68,18.47,18.47,0,0,1,.89,5.82q0,1.13-.09,2.24t-0.21,1.76h-19.8Zm12.11-5.91a7.52,7.52,0,0,0-1.58-4.62A5,5,0,0,0,198,24.38a5.89,5.89,0,0,0-4.53,1.67,7.84,7.84,0,0,0-1.85,4.71h12Z" transform="translate(-0.98 -3.98)"/><path class="cls-1" d="M216.12,5.89a17.65,17.65,0,0,1,2.09-.24q1.07-.06,2.09-0.06t2.09,0.06a19.68,19.68,0,0,1,2.15.24V22.3q0.42-.54,1.1-1.28a9.57,9.57,0,0,1,1.7-1.43,10,10,0,0,1,2.45-1.16,10.38,10.38,0,0,1,3.28-.48q5.13,0,7.78,2.86t2.65,9V49.56a20.12,20.12,0,0,1-2.15.24q-1.07.06-2.09,0.06t-2.09-.06a19.91,19.91,0,0,1-2.15-.24V32.08a9.9,9.9,0,0,0-1-5,3.68,3.68,0,0,0-3.46-1.73,7.78,7.78,0,0,0-2.09.3,4.39,4.39,0,0,0-1.94,1.16,6.53,6.53,0,0,0-1.43,2.42,12,12,0,0,0-.57,4.06V49.56a20.07,20.07,0,0,1-2.15.24q-1.07.06-2.09,0.06t-2.06-.06a19.92,19.92,0,0,1-2.12-.24V5.89Z" transform="translate(-0.98 -3.98)"/><path class="cls-1" d="M248.57,18.66a25.23,25.23,0,0,1,8.47,0V35a17.28,17.28,0,0,0,.39,4,5.86,5.86,0,0,0,1.19,2.5,4.39,4.39,0,0,0,2,1.31,9.1,9.1,0,0,0,2.8.39,13.94,13.94,0,0,0,3.7-.42V18.66a25.38,25.38,0,0,1,4.18-.36,25.72,25.72,0,0,1,4.23.36V48.3a40.2,40.2,0,0,1-5,1.28,33.23,33.23,0,0,1-6.53.63,34.79,34.79,0,0,1-5.85-.48,11.42,11.42,0,0,1-4.92-2,10.46,10.46,0,0,1-3.37-4.53,20.81,20.81,0,0,1-1.25-7.93V18.66h0Z" transform="translate(-0.98 -3.98)"/><path class="cls-1" d="M281,5.89a25.39,25.39,0,0,1,4.18-.36,25.73,25.73,0,0,1,4.24.36V21.64a6.67,6.67,0,0,1,3-2.65,10.53,10.53,0,0,1,4.77-1,12.85,12.85,0,0,1,5,1,10.5,10.5,0,0,1,4,2.89,14,14,0,0,1,2.62,4.86,22.38,22.38,0,0,1,1,6.92,19.08,19.08,0,0,1-1.19,6.95,14.14,14.14,0,0,1-3.46,5.22,15.45,15.45,0,0,1-5.55,3.31,22.06,22.06,0,0,1-7.4,1.16q-1.31,0-2.77-.12t-3-.33q-1.49-.21-2.86-0.54a21.66,21.66,0,0,1-2.51-.75V5.89h0Zm8.41,36.92a6.18,6.18,0,0,0,1.52.3c0.54,0,1.08.06,1.64,0.06a8.1,8.1,0,0,0,6.08-2.27q2.21-2.27,2.21-7.1a12.62,12.62,0,0,0-1.37-6.53A5,5,0,0,0,294.86,25,5.18,5.18,0,0,0,291,26.62q-1.52,1.58-1.52,5V42.82h0Z" transform="translate(-0.98 -3.98)"/></g></g></svg>