<?xml version="1.0" encoding="utf-8"?>
<!-- Generator: Adobe Illustrator 15.1.0, SVG Export Plug-In . SVG Version: 6.00 Build 0)  -->
<!DOCTYPE svg PUBLIC "-//W3C//DTD SVG 1.1//EN" "http://www.w3.org/Graphics/SVG/1.1/DTD/svg11.dtd">
<svg version="1.1" id="Layer_1" xmlns="http://www.w3.org/2000/svg" xmlns:xlink="http://www.w3.org/1999/xlink" x="0px" y="0px"
	 width="310.69116" height="69.191895" viewBox="417 455 240 87" enable-background="new 0 0 1000 1000" xml:space="preserve">
<g id="parsehub_logo">
	<g id="symbol" transform="matrix(0.55, 0, 0, 0.55, 195, 224.55)">
		<g>
			<path fill="#21BBD1" d="M304.025,499.3c0-20.07,16.329-36.4,36.4-36.4c20.07,0,36.4,16.33,36.4,36.4
				c0,20.071-16.33,36.4-36.4,36.4C320.354,535.7,304.025,519.371,304.025,499.3z"/>
			<path fill="#20222D" d="M409,441.2c0-6.16-5.403-11.2-11.563-11.2c0,0-51.986,0-57.012,0C301.766,430,269,460.64,269,499.3
				c0,14.263,0,70.7,0,70.7h17v-70.7c0-29.334,24.479-53.2,53.813-53.2s53.505,23.865,53.505,53.2c0,29.334-24.225,53.2-53.559,53.2
				c-14.074,0-28.759-5.502-36.759-14.455V570c12,0,29.358,0,37.425,0c38.66,0,68.575-32.04,68.575-70.7
				C409,494.178,409,441.2,409,441.2z"/>
		</g>
	</g>
	<g id="name">
		<path fill="#20222D" d="M437.068,479.437c0.7-0.15,1.388-0.25,2.063-0.3c0.675-0.049,1.437-0.075,2.288-0.075
			c1.399,0,2.824,0.15,4.275,0.45c0.15,0.25,0.287,0.613,0.413,1.087c0.124,0.476,0.25,0.988,0.375,1.538
			c0.124,0.551,0.225,1.087,0.3,1.612c0.075,0.525,0.137,0.963,0.188,1.313c0.45-0.799,1-1.586,1.65-2.362
			c0.649-0.775,1.437-1.462,2.362-2.063c0.925-0.6,1.962-1.087,3.112-1.462c1.15-0.375,2.425-0.563,3.825-0.563
			c2.149,0,4.163,0.4,6.038,1.2c1.875,0.8,3.512,2.013,4.913,3.638c1.399,1.625,2.486,3.663,3.262,6.112
			c0.775,2.451,1.163,5.351,1.163,8.7c0,3.25-0.476,6.163-1.425,8.738c-0.951,2.575-2.325,4.762-4.125,6.563
			c-1.8,1.8-4.001,3.188-6.6,4.162c-2.601,0.975-5.55,1.463-8.85,1.463c-0.851,0-1.688-0.038-2.513-0.113
			c-0.825-0.074-1.513-0.162-2.063-0.262v17.25c-0.95,0.149-1.863,0.249-2.737,0.3c-0.875,0.049-1.738,0.075-2.587,0.075
			c-0.851,0-1.713-0.026-2.587-0.075c-0.875-0.051-1.789-0.15-2.738-0.3V479.437z M447.718,510.037c1.35,0.4,2.899,0.6,4.65,0.6
			c3.1,0,5.475-0.999,7.125-3c1.65-1.999,2.475-5.024,2.475-9.075c0-1.549-0.125-2.987-0.375-4.313
			c-0.25-1.324-0.675-2.462-1.275-3.413c-0.6-0.949-1.363-1.699-2.288-2.25c-0.926-0.549-2.063-0.825-3.412-0.825
			c-1.25,0-2.313,0.238-3.188,0.712c-0.875,0.476-1.588,1.125-2.138,1.95c-0.551,0.825-0.95,1.788-1.2,2.887
			c-0.25,1.101-0.375,2.276-0.375,3.525V510.037z"/>
		<path fill="#20222D" d="M498.342,492.787c0-1.2-0.2-2.175-0.6-2.925c-0.4-0.75-0.95-1.337-1.65-1.763
			c-0.701-0.424-1.563-0.712-2.587-0.862c-1.025-0.15-2.164-0.225-3.413-0.225c-2.7,0-5.576,0.525-8.625,1.575
			c-0.701-1.299-1.226-2.524-1.575-3.675c-0.35-1.149-0.525-2.524-0.525-4.125c2.2-0.75,4.399-1.3,6.6-1.65
			c2.2-0.349,4.249-0.525,6.15-0.525c5.199,0,9.263,1.25,12.188,3.75c2.925,2.5,4.388,6.5,4.388,12v22.5
			c-1.751,0.551-3.876,1.075-6.375,1.575c-2.501,0.499-5.325,0.75-8.475,0.75c-2.55,0-4.888-0.226-7.013-0.676
			c-2.125-0.449-3.95-1.199-5.475-2.25c-1.525-1.05-2.7-2.399-3.525-4.05c-0.825-1.649-1.237-3.675-1.237-6.075
			c0-2.399,0.512-4.412,1.538-6.037c1.024-1.624,2.35-2.925,3.975-3.9c1.625-0.975,3.438-1.675,5.438-2.1c2-0.424,4-0.638,6-0.638
			c1.45,0,3.05,0.075,4.8,0.225V492.787z M498.342,500.512c-0.6-0.1-1.25-0.188-1.949-0.263c-0.701-0.075-1.326-0.112-1.875-0.112
			c-2.45,0-4.387,0.438-5.813,1.312c-1.425,0.876-2.137,2.288-2.137,4.238c0,1.301,0.274,2.3,0.825,3
			c0.55,0.7,1.212,1.213,1.988,1.537c0.774,0.326,1.6,0.525,2.475,0.6c0.875,0.075,1.637,0.113,2.288,0.113
			c0.75,0,1.5-0.063,2.25-0.188c0.75-0.125,1.398-0.237,1.949-0.338V500.512z"/>
		<path fill="#20222D" d="M515.517,479.512c0.75-0.15,1.463-0.263,2.138-0.337c0.675-0.075,1.412-0.113,2.212-0.113
			c0.75,0,1.487,0.05,2.213,0.15c0.725,0.101,1.437,0.225,2.138,0.375c0.149,0.251,0.287,0.613,0.412,1.088
			c0.124,0.476,0.237,0.975,0.338,1.5c0.1,0.525,0.188,1.05,0.263,1.575c0.074,0.525,0.137,0.963,0.188,1.313
			c1.099-1.549,2.449-2.937,4.05-4.163c1.6-1.225,3.6-1.837,6-1.837c0.499,0,1.074,0.026,1.725,0.075
			c0.649,0.05,1.125,0.125,1.425,0.225c0.1,0.5,0.175,1.076,0.226,1.725c0.049,0.65,0.075,1.326,0.075,2.025
			c0,0.851-0.038,1.775-0.113,2.775c-0.074,1-0.213,1.95-0.412,2.85c-0.551-0.1-1.162-0.15-1.838-0.15c-0.675,0-1.087,0-1.237,0
			c-0.851,0-1.8,0.088-2.85,0.263c-1.05,0.176-2.051,0.638-3,1.388c-0.95,0.75-1.738,1.875-2.362,3.375
			c-0.626,1.5-0.938,3.6-0.938,6.3v18.45c-0.9,0.149-1.801,0.249-2.7,0.3c-0.9,0.049-1.775,0.075-2.625,0.075
			c-0.851,0-1.714-0.026-2.588-0.075c-0.875-0.051-1.788-0.15-2.737-0.3V479.512z"/>
		<path fill="#20222D" d="M549.717,501.412c-2.801-0.799-4.987-1.987-6.563-3.563s-2.362-3.938-2.362-7.087
			c0-3.799,1.361-6.775,4.087-8.925c2.725-2.149,6.438-3.225,11.138-3.225c1.95,0,3.874,0.176,5.775,0.525
			c1.899,0.35,3.825,0.875,5.774,1.575c-0.101,1.301-0.35,2.651-0.75,4.05c-0.4,1.4-0.875,2.625-1.425,3.675
			c-1.2-0.499-2.525-0.938-3.975-1.313c-1.451-0.375-2.976-0.563-4.575-0.563c-1.7,0-3.025,0.263-3.975,0.788
			c-0.951,0.525-1.426,1.363-1.426,2.513c0,1.1,0.338,1.875,1.013,2.325c0.675,0.45,1.638,0.875,2.888,1.275l4.275,1.275
			c1.398,0.4,2.662,0.888,3.787,1.462c1.125,0.575,2.087,1.288,2.888,2.137c0.799,0.851,1.425,1.901,1.875,3.15
			c0.45,1.25,0.675,2.774,0.675,4.575c0,1.85-0.388,3.575-1.162,5.175c-0.776,1.601-1.901,2.988-3.375,4.162
			c-1.476,1.176-3.263,2.101-5.363,2.775c-2.1,0.675-4.475,1.013-7.125,1.013c-1.199,0-2.3-0.038-3.3-0.113
			c-1.001-0.074-1.963-0.2-2.888-0.375c-0.926-0.176-1.837-0.388-2.737-0.637c-0.899-0.25-1.875-0.574-2.925-0.976
			c0.1-1.35,0.338-2.712,0.713-4.087s0.862-2.712,1.462-4.013c1.65,0.65,3.212,1.138,4.688,1.462
			c1.475,0.326,3.012,0.488,4.612,0.488c0.7,0,1.463-0.063,2.288-0.188s1.587-0.35,2.287-0.676c0.7-0.324,1.287-0.75,1.763-1.274
			c0.475-0.525,0.713-1.212,0.713-2.063c0-1.2-0.363-2.063-1.088-2.588c-0.726-0.524-1.738-0.986-3.037-1.388L549.717,501.412z"/>
		<path fill="#20222D" d="M582.565,502.162c0.199,3,1.25,5.175,3.15,6.525c1.899,1.35,4.399,2.024,7.5,2.024
			c1.699,0,3.438-0.161,5.213-0.487c1.773-0.324,3.461-0.787,5.063-1.388c0.549,1.001,1.023,2.201,1.425,3.601
			c0.399,1.4,0.624,2.9,0.675,4.5c-3.9,1.5-8.301,2.25-13.2,2.25c-3.6,0-6.688-0.501-9.263-1.5c-2.575-1-4.676-2.388-6.3-4.163
			c-1.625-1.774-2.825-3.887-3.6-6.337c-0.776-2.449-1.163-5.125-1.163-8.025c0-2.85,0.4-5.524,1.2-8.025
			c0.8-2.5,1.987-4.675,3.563-6.525c1.575-1.85,3.525-3.312,5.851-4.388c2.324-1.075,5.036-1.612,8.137-1.612
			c2.7,0,5.101,0.476,7.2,1.425c2.101,0.95,3.888,2.25,5.362,3.9s2.588,3.613,3.338,5.888c0.75,2.276,1.125,4.713,1.125,7.313
			c0,0.95-0.037,1.888-0.112,2.813c-0.075,0.926-0.163,1.663-0.263,2.212H582.565z M597.791,494.737
			c-0.101-2.4-0.763-4.337-1.987-5.813c-1.227-1.475-2.938-2.213-5.138-2.213c-2.501,0-4.4,0.701-5.7,2.1
			c-1.301,1.4-2.075,3.375-2.325,5.925H597.791z"/>
		<path fill="#21BBD1" d="M613.466,463.462c0.85-0.15,1.726-0.25,2.625-0.3c0.9-0.049,1.774-0.075,2.625-0.075c0.85,0,1.726,0.026,2.625,0.075
			c0.9,0.05,1.801,0.15,2.7,0.3v20.625c0.35-0.45,0.813-0.986,1.388-1.612c0.574-0.625,1.287-1.225,2.138-1.8
			c0.85-0.574,1.875-1.062,3.075-1.463c1.199-0.399,2.574-0.6,4.125-0.6c4.299,0,7.562,1.2,9.787,3.6
			c2.225,2.4,3.338,6.176,3.338,11.325v24.825c-0.9,0.149-1.801,0.249-2.7,0.3c-0.9,0.049-1.775,0.075-2.625,0.075
			c-0.851,0-1.726-0.026-2.625-0.075c-0.9-0.051-1.8-0.15-2.7-0.3v-21.975c0-2.7-0.426-4.774-1.275-6.225
			c-0.851-1.45-2.3-2.175-4.35-2.175c-0.851,0-1.725,0.125-2.625,0.375c-0.9,0.25-1.713,0.738-2.438,1.462
			c-0.726,0.725-1.325,1.738-1.8,3.038c-0.476,1.301-0.713,3-0.713,5.1v20.4c-0.899,0.149-1.8,0.249-2.7,0.3
			c-0.899,0.049-1.775,0.075-2.625,0.075c-0.851,0-1.713-0.026-2.587-0.075c-0.876-0.051-1.763-0.15-2.663-0.3V463.462z"/>
		<path fill="#21BBD1" d="M654.266,479.512c1.8-0.3,3.574-0.45,5.325-0.45c1.749,0,3.524,0.15,5.324,0.45v20.55c0,2.051,0.162,3.739,0.488,5.063
			c0.324,1.325,0.824,2.375,1.5,3.149c0.675,0.776,1.512,1.325,2.512,1.65s2.176,0.487,3.525,0.487c1.85,0,3.399-0.175,4.65-0.525
			v-30.375c1.8-0.3,3.549-0.45,5.25-0.45c1.749,0,3.524,0.15,5.324,0.45v37.275c-1.601,0.551-3.712,1.088-6.337,1.612
			c-2.625,0.525-5.362,0.788-8.213,0.788c-2.55,0-5-0.201-7.35-0.601c-2.351-0.399-4.413-1.249-6.188-2.55
			c-1.775-1.3-3.188-3.199-4.237-5.7c-1.051-2.499-1.575-5.824-1.575-9.975V479.512z"/>
		<path fill="#21BBD1" d="M695.064,463.462c1.801-0.3,3.55-0.45,5.25-0.45c1.75,0,3.525,0.15,5.325,0.45v19.8c0.75-1.35,1.999-2.462,3.75-3.337
			c1.75-0.875,3.75-1.313,6-1.313s4.337,0.4,6.263,1.2c1.924,0.8,3.587,2.013,4.987,3.638c1.399,1.625,2.5,3.663,3.3,6.112
			c0.8,2.451,1.2,5.351,1.2,8.7c0,3.25-0.5,6.163-1.5,8.738c-1.001,2.575-2.45,4.762-4.35,6.563c-1.901,1.8-4.226,3.188-6.976,4.162
			s-5.85,1.463-9.3,1.463c-1.101,0-2.263-0.051-3.487-0.15c-1.226-0.101-2.463-0.238-3.713-0.412c-1.25-0.176-2.45-0.4-3.6-0.676
			c-1.15-0.273-2.201-0.587-3.15-0.938V463.462z M705.64,509.887c0.601,0.201,1.237,0.326,1.913,0.375
			c0.675,0.051,1.361,0.075,2.063,0.075c3.249,0,5.799-0.949,7.649-2.85c1.85-1.899,2.775-4.875,2.775-8.925
			c0-3.6-0.575-6.337-1.726-8.212s-3.101-2.813-5.85-2.813c-2,0-3.638,0.663-4.912,1.987c-1.275,1.326-1.913,3.413-1.913,6.263
			V509.887z"/>
	</g>
</g>
</svg>
