<svg id="Layer_1" data-name="Layer 1" xmlns="http://www.w3.org/2000/svg" xmlns:xlink="http://www.w3.org/1999/xlink" viewBox="0 0 66.78 66.78"><defs><style>.cls-1,.cls-7{fill:none;}.cls-2{fill:#37c1d5;}.cls-3{fill:#21bbd1;}.cls-4{fill:url(#New_Pattern_Swatch_3);}.cls-5{fill:#232323;}.cls-6{fill:#fff;}.cls-7{stroke:#20222d;stroke-miterlimit:10;}</style><pattern id="New_Pattern_Swatch_3" data-name="New Pattern Swatch 3" width="6.67" height="117.67" patternTransform="translate(-154.79 -172.84) rotate(-65)" patternUnits="userSpaceOnUse" viewBox="0 0 6.67 117.67"><rect class="cls-1" width="6.67" height="117.67"/><rect class="cls-2" width="3.33" height="117.67"/><rect class="cls-3" x="3.33" width="3.33" height="117.67"/></pattern></defs><title>parsehub_icon_three_v2</title><circle class="cls-4" cx="33.39" cy="33.39" r="33.39"/><path class="cls-5" d="M402.09,289c5,0,9.08,4.62,9.14,10.33,0,0.21,0,.42,0,0.64l-0.08,2.56,2.12,0.84a7,7,0,0,1,4.1,6.54c0,3.85-2.73,7-6.09,7H380.77c-3.36,0-6.09-3.12-6.09-7s2.68-6.91,6-7l0.44,0.05,2.32,0.17,0.76-2.5a6.21,6.21,0,0,1,5.72-4.7,5.4,5.4,0,0,1,1.07.13l2.13,0.44,1.06-2.16a9,9,0,0,1,7.93-5.38m0-3.49c-4.56,0-8.49,2.91-10.58,7.15a8,8,0,0,0-1.6-.18c-4,0-7.35,2.95-8.6,7-0.18,0-.36-0.06-0.54-0.06-5,0-9.14,4.68-9.14,10.46s4.09,10.46,9.14,10.46h30.47c5,0,9.14-4.68,9.14-10.46a10.41,10.41,0,0,0-6.15-9.84c0-.21.05-0.41,0.05-0.62,0-7.7-5.46-13.94-12.19-13.94h0Zm0,0" transform="translate(-362.54 -273.55)"/><path class="cls-6" d="M395.3,312.83l0.08,0,0.09,0,0,0h0l0.1,0,0.08,0h0.55l0.1,0,0.08,0h0l0.06,0,0.08,0,0.09,0,0.07,0,0.08-.06,0,0,5.9-4.79a0.89,0.89,0,0,0,0-1.45,1.47,1.47,0,0,0-1.78,0l-3.75,3V300a1,1,0,0,0-.56-0.85A1.47,1.47,0,0,0,396,299a1.42,1.42,0,0,0-.89.3,0.94,0.94,0,0,0-.37.72h0v9.48l-3.75-3a1.48,1.48,0,0,0-1.78,0,0.89,0.89,0,0,0,0,1.45l5.9,4.79,0,0,0.08,0.05Z" transform="translate(-362.54 -273.55)"/><text x="-362.54" y="-273.55"/><path class="cls-7" d="M415.5,313.5" transform="translate(-362.54 -273.55)"/></svg>