<svg id="Layer_1" data-name="Layer 1" xmlns="http://www.w3.org/2000/svg" xmlns:xlink="http://www.w3.org/1999/xlink" viewBox="0 0 72.64 71.36"><defs><style>.cls-1,.cls-5{fill:none;}.cls-2{fill:#37c1d5;}.cls-3{fill:#21bbd1;}.cls-4{fill:url(#New_Pattern_Swatch_3);}.cls-5{stroke:#20222d;stroke-miterlimit:10;}.cls-6{fill:#20222d;}.cls-7{fill:#fff;}</style><pattern id="New_Pattern_Swatch_3" data-name="New Pattern Swatch 3" width="6.67" height="117.67" patternTransform="matrix(-0.46, -0.97, -0.99, 0.45, 112.52, -174.88)" patternUnits="userSpaceOnUse" viewBox="0 0 6.67 117.67"><rect class="cls-1" width="6.67" height="117.67"/><rect class="cls-2" width="3.33" height="117.67"/><rect class="cls-3" x="3.33" width="3.33" height="117.67"/></pattern></defs><title>parsehub_icon_one_v3</title><ellipse class="cls-4" cx="36.32" cy="35.68" rx="36.32" ry="35.68"/><rect class="cls-4" x="22.37" y="30.06" width="3.33" height="2" rx="1" ry="1"/><path class="cls-5" d="M154.13,148.25" transform="translate(-143.3 -72.28)"/><path class="cls-5" d="M143.88,151.63" transform="translate(-143.3 -72.28)"/><path class="cls-5" d="M144.38,153.38" transform="translate(-143.3 -72.28)"/><path class="cls-5" d="M142.63,154.25" transform="translate(-143.3 -72.28)"/><path class="cls-5" d="M140.88,155" transform="translate(-143.3 -72.28)"/><path class="cls-6" d="M14.16,20.25H17.4a0,0,0,0,1,0,0v33a0,0,0,0,1,0,0H16.16a2,2,0,0,1-2-2v-31a0,0,0,0,1,0,0Z"/><path class="cls-6" d="M55.36,19.93h3.12a0,0,0,0,1,0,0v31a2,2,0,0,1-2,2H55.36a0,0,0,0,1,0,0v-33A0,0,0,0,1,55.36,19.93Z"/><path class="cls-6" d="M180.08,101.81h1.07a0,0,0,0,1,0,0v44.32a0,0,0,0,1,0,0h-1.07a2,2,0,0,1-2-2V103.81A2,2,0,0,1,180.08,101.81Z" transform="translate(-87.65 231.31) rotate(-90)"/><path class="cls-6" d="M178.11,71.76h5a0,0,0,0,1,0,0v44.32a0,0,0,0,1,0,0h-5a2,2,0,0,1-2-2V73.76A2,2,0,0,1,178.11,71.76Z" transform="translate(130.24 -157.97) rotate(90)"/><rect class="cls-7" x="23.88" y="20.25" width="32.47" height="2.37"/><rect class="cls-7" x="16.38" y="20.25" width="2.88" height="2.37" rx="0.73" ry="0.73"/><rect class="cls-7" x="20.18" y="20.25" width="2.88" height="2.37" rx="0.73" ry="0.73"/><rect class="cls-7" x="25.57" y="28.55" width="26.12" height="2.15" rx="1" ry="1"/><rect class="cls-7" x="20.94" y="28.55" width="3.71" height="2.15" rx="1" ry="1"/><rect class="cls-7" x="25.57" y="33.3" width="26.12" height="2.15" rx="1" ry="1"/><rect class="cls-7" x="20.94" y="33.3" width="3.71" height="2.15" rx="1" ry="1"/><rect class="cls-7" x="25.57" y="38.06" width="26.12" height="2.15" rx="1" ry="1"/><rect class="cls-7" x="20.94" y="38.06" width="3.71" height="2.15" rx="1" ry="1"/><rect class="cls-7" x="25.57" y="43.26" width="26.12" height="2.15" rx="1" ry="1"/><rect class="cls-7" x="20.94" y="43.26" width="3.71" height="2.15" rx="1" ry="1"/></svg>